<svg width="131" height="168" viewBox="0 0 131 168" fill="none" xmlns="http://www.w3.org/2000/svg">
<path d="M65.1754 0C73.5016 5.59876e-05 81.7239 1.85416 89.2458 5.42871C96.7679 9.00327 103.401 14.2086 108.665 20.667C113.929 27.1254 117.691 34.676 119.681 42.7705C121.67 50.865 121.837 59.3012 120.167 67.4678C126.435 77.3326 129.94 88.7027 130.317 100.389C130.693 112.074 127.925 123.646 122.305 133.895C116.684 144.142 108.417 152.691 98.3668 158.646C88.317 164.599 76.8534 167.74 65.1754 167.74C53.4973 167.74 42.0333 164.6 31.9831 158.646C21.9328 152.691 13.6651 144.143 8.04458 133.895C2.42417 123.646 -0.342377 112.074 0.0338395 100.389C0.410089 88.7027 3.91518 77.3326 10.1833 67.4678C8.51331 59.3013 8.67933 50.865 10.6686 42.7705C12.6579 34.6759 16.421 27.1255 21.6852 20.667C26.9494 14.2086 33.5833 9.00327 41.1051 5.42871C48.627 1.85427 56.8492 0 65.1754 0ZM16.0524 99.7002C15.5176 99.7323 14.9942 99.869 14.5124 100.104C14.0305 100.338 13.5993 100.666 13.2438 101.067C12.8883 101.469 12.6151 101.936 12.4401 102.443C12.265 102.95 12.1912 103.487 12.2233 104.022C12.2233 104.471 15.8077 149.617 64.6481 152.431H64.8932L64.9333 152.471C66.0135 152.503 67.0625 152.105 67.8493 151.363C68.636 150.622 69.097 149.597 69.1295 148.516C69.162 147.434 68.7631 146.383 68.0221 145.596C67.2811 144.808 66.2577 144.347 65.1774 144.314C23.466 141.908 20.3698 105.083 20.3698 103.533C20.3377 102.998 20.2008 102.474 19.9665 101.991C19.7321 101.509 19.4055 101.077 19.0045 100.721C18.6036 100.365 18.136 100.092 17.6295 99.917C17.1231 99.7418 16.5872 99.6681 16.0524 99.7002ZM65.2155 12.0049C53.8677 11.9862 42.9552 16.375 34.7731 24.2471C26.5911 32.1191 21.7768 42.8611 21.3444 54.2139C33.3447 43.2784 48.9885 37.2178 65.2155 37.2178C81.4425 37.2178 97.0866 43.2785 109.087 54.2139C108.655 42.8612 103.841 32.1191 95.6588 24.2471C87.4767 16.375 76.5634 11.9861 65.2155 12.0049Z" fill="#5024CF"/>
</svg>
