<svg width="138" height="176" viewBox="0 0 138 176" fill="none" xmlns="http://www.w3.org/2000/svg">
<g clip-path="url(#clip0_225_153)">
<path d="M123.951 71.7755C125.621 63.6089 125.455 55.1727 123.466 47.0781C121.476 38.9835 117.713 31.4334 112.449 24.9749C107.185 18.5164 100.552 13.3112 93.0297 9.73659C85.5077 6.16199 77.2856 4.3075 68.9593 4.3075C60.6329 4.3075 52.4109 6.16199 44.8889 9.73659C37.367 13.3112 30.7336 18.5164 25.4694 24.9749C20.2052 31.4334 16.4421 38.9835 14.4528 47.0781C12.4635 55.1727 12.2978 63.6089 13.9678 71.7755C7.69973 81.6403 4.19427 93.01 3.81802 104.696C3.44177 116.381 6.20854 127.953 11.829 138.202C17.4495 148.45 25.7171 156.998 35.7674 162.953C45.8176 168.907 57.2812 172.048 68.9593 172.048C80.6374 172.048 92.101 168.907 102.151 162.953C112.201 156.998 120.469 148.45 126.09 138.202C131.71 127.953 134.477 116.381 134.101 104.696C133.724 93.01 130.219 81.6403 123.951 71.7755ZM69 16.3126C80.3479 16.2938 91.2608 20.6821 99.4429 28.5542C107.625 36.4263 112.439 47.1687 112.871 58.5215C100.871 47.586 85.2271 41.5256 69 41.5256C52.7729 41.5256 37.1294 47.586 25.129 58.5215C25.5614 47.1687 30.375 36.4263 38.5571 28.5542C46.7393 20.6821 57.6521 16.2938 69 16.3126Z" fill="white"/>
<path d="M69 175.768C56.7894 175.724 44.8075 172.449 34.2691 166.274C23.7307 160.099 15.0107 151.244 8.99307 140.606C2.97545 129.969 -0.125754 117.928 0.0039051 105.704C0.133565 93.4799 3.48948 81.5075 9.73137 71.0006C9.11477 67.4587 8.80133 63.8705 8.79447 60.2751C8.79447 44.2891 15.1375 28.9579 26.4283 17.6542C37.719 6.3504 53.0325 0 69 0C84.9675 0 100.281 6.3504 111.572 17.6542C122.862 28.9579 129.205 44.2891 129.205 60.2751C129.199 63.8705 128.885 67.4587 128.269 71.0006C134.51 81.5075 137.866 93.4799 137.996 105.704C138.126 117.928 135.025 129.969 129.007 140.606C122.989 151.244 114.269 160.099 103.731 166.274C93.1925 172.449 81.2106 175.724 69 175.768ZM69 8.15631C61.2598 8.16289 53.6184 9.89599 46.6311 13.2296C39.6438 16.5633 33.4863 21.4137 28.606 27.4284C23.7257 33.443 20.2453 40.4708 18.4178 48.0008C16.5904 55.5308 16.4617 63.3738 18.0412 70.9599C18.2512 72.0018 18.0466 73.0846 17.4709 73.9777C11.5853 83.2248 8.29043 93.8856 7.9312 104.845C7.57196 115.804 10.1615 126.658 15.4289 136.271C20.6963 145.885 28.4479 153.904 37.8723 159.49C47.2968 165.076 58.0477 168.023 69 168.023C79.9522 168.023 90.7031 165.076 100.128 159.49C109.552 153.904 117.304 145.885 122.571 136.271C127.838 126.658 130.428 115.804 130.069 104.845C129.71 93.8856 126.415 83.2248 120.529 73.9777C119.953 73.0846 119.749 72.0018 119.959 70.9599C121.538 63.3738 121.41 55.5308 119.582 48.0008C117.755 40.4708 114.274 33.443 109.394 27.4284C104.514 21.4137 98.3561 16.5633 91.3688 13.2296C84.3816 9.89599 76.7401 8.16289 69 8.15631ZM112.871 62.5996C111.847 62.6072 110.858 62.2286 110.101 61.5393C98.8753 51.2599 84.2131 45.5592 69 45.5592C53.7868 45.5592 39.1246 51.2599 27.8989 61.5393C27.3061 62.0915 26.5623 62.4543 25.7625 62.5813C24.9628 62.7083 24.1434 62.5938 23.4089 62.2524C22.6745 61.911 22.0583 61.3583 21.6392 60.6647C21.22 59.9711 21.0168 59.1681 21.0555 58.3584C21.5657 45.9704 26.8401 34.2595 35.7756 25.6749C44.7111 17.0903 56.6158 12.2968 69 12.2968C81.3842 12.2968 93.2889 17.0903 102.224 25.6749C111.16 34.2595 116.434 45.9704 116.944 58.3584C116.978 59.1658 116.772 59.9652 116.351 60.655C115.931 61.3448 115.315 61.8939 114.582 62.2326C114.045 62.4776 113.461 62.6028 112.871 62.5996ZM69 37.3967C82.5959 37.3772 95.8924 41.3935 107.209 48.9378C104.775 40.6819 99.7387 33.4359 92.852 28.2821C85.9653 23.1283 77.598 20.3434 69 20.3434C60.4019 20.3434 52.0346 23.1283 45.148 28.2821C38.2613 33.4359 33.2249 40.6819 30.7911 48.9378C42.1076 41.3935 55.4041 37.3772 69 37.3967Z" fill="white"/>
<path d="M112.87 62.5997C111.847 62.6073 110.858 62.2287 110.1 61.5394C98.8748 51.2599 84.2125 45.5592 68.9994 45.5592C53.7863 45.5592 39.124 51.2599 27.8983 61.5394C27.3055 62.0916 26.5617 62.4544 25.762 62.5814C24.9622 62.7084 24.1428 62.5939 23.4084 62.2525C22.6739 61.9111 22.0578 61.3583 21.6386 60.6647C21.2194 59.9711 21.0162 59.1682 21.055 58.3585C21.5651 45.9705 26.8395 34.2596 35.775 25.675C44.7105 17.0904 56.6152 12.2969 68.9994 12.2969C81.3836 12.2969 93.2883 17.0904 102.224 25.675C111.159 34.2596 116.434 45.9705 116.944 58.3585C116.978 59.1659 116.771 59.9653 116.351 60.6551C115.93 61.3449 115.314 61.894 114.581 62.2327C114.044 62.4777 113.461 62.6029 112.87 62.5997ZM68.9994 37.3968C82.5953 37.3773 95.8918 41.3936 107.208 48.9379C104.774 40.682 99.7381 33.436 92.8514 28.2822C85.9647 23.1284 77.5974 20.3435 68.9994 20.3435C60.4014 20.3435 52.0341 23.1284 45.1474 28.2822C38.2607 33.436 33.2243 40.682 30.7905 48.9379C42.107 41.3936 55.4035 37.3773 68.9994 37.3968Z" fill="#7C3AED"/>
<path d="M112.871 62.5997C111.847 62.6073 110.858 62.2287 110.101 61.5394C98.8753 51.2599 84.213 45.5592 68.9999 45.5592C53.7867 45.5592 39.1245 51.2599 27.8988 61.5394C27.306 62.0916 26.5622 62.4544 25.7625 62.5814C24.9627 62.7084 24.1433 62.5939 23.4089 62.2525C22.6744 61.9111 22.0583 61.3583 21.6391 60.6647C21.2199 59.9711 21.0167 59.1682 21.0554 58.3585C21.5656 45.9705 26.84 34.2596 35.7755 25.675C44.711 17.0904 56.6157 12.2969 68.9999 12.2969C81.3841 12.2969 93.2888 17.0904 102.224 25.675C111.16 34.2596 116.434 45.9705 116.944 58.3585C116.978 59.1659 116.772 59.9653 116.351 60.6551C115.931 61.3449 115.315 61.894 114.582 62.2327C114.045 62.4777 113.461 62.6029 112.871 62.5997ZM68.9999 37.3968C82.5958 37.3773 95.8923 41.3936 107.209 48.9379C104.775 40.682 99.7386 33.436 92.8519 28.2822C85.9652 23.1284 77.5979 20.3435 68.9999 20.3435C60.4018 20.3435 52.0345 23.1284 45.1479 28.2822C38.2612 33.436 33.2248 40.682 30.791 48.9379C42.1075 41.3936 55.404 37.3773 68.9999 37.3968Z" fill="#7C3AED"/>
<path d="M68.677 156.738H68.4326C19.592 153.924 16.0073 108.779 16.0073 108.33C15.9752 107.795 16.0488 107.258 16.2239 106.751C16.3989 106.244 16.672 105.776 17.0276 105.375C17.3831 104.973 17.8142 104.646 18.2961 104.411C18.7781 104.177 19.3014 104.039 19.8364 104.007C20.3713 103.975 20.9073 104.049 21.4138 104.224C21.9203 104.399 22.3874 104.673 22.7883 105.029C23.1893 105.385 23.5163 105.816 23.7506 106.299C23.985 106.781 24.1221 107.305 24.1542 107.841C24.1542 109.39 27.25 146.216 68.9621 148.622C70.0424 148.655 71.0657 149.116 71.8067 149.903C72.5477 150.691 72.9458 151.741 72.9133 152.823C72.8809 153.904 72.4207 154.929 71.6339 155.671C70.847 156.413 69.798 156.811 68.7177 156.779L68.677 156.738Z" fill="#7C3AED"/>
</g>
<defs>
<clipPath id="clip0_225_153">
<rect width="138" height="176" fill="white"/>
</clipPath>
</defs>
</svg>
